<svg width="360" height="264" viewBox="0 0 360 264" fill="none" xmlns="http://www.w3.org/2000/svg">
<path fill-rule="evenodd" clip-rule="evenodd" d="M155.467 181.453C155.467 182.859 156.608 184 158.014 184H160.417C161.822 184 162.962 182.859 162.962 181.453V158.519H155.467V181.453Z" fill="#19194B"/>
<path fill-rule="evenodd" clip-rule="evenodd" d="M197.107 158.519V181.453C197.107 182.859 198.247 184 199.652 184H202.057C203.462 184 204.602 182.859 204.602 181.453V158.519H197.107Z" fill="#19194B"/>
<path fill-rule="evenodd" clip-rule="evenodd" d="M231.523 128.75C230.361 129.05 229.408 129.876 228.949 130.984L228.034 133.188C227.577 134.296 227.667 135.554 228.275 136.587C232.218 143.272 231.204 152.018 225.609 157.611C219.58 163.641 209.887 164.349 203.06 159.26L200.819 158.517H159.177L156.937 159.26C150.115 164.351 140.419 163.641 134.39 157.611C128.794 152.016 127.78 143.272 131.723 136.587C132.335 135.556 132.424 134.296 131.964 133.188L131.051 130.984C130.594 129.876 129.639 129.05 128.477 128.75C120.962 126.813 115.495 119.911 115.495 112C115.495 104.09 120.962 97.1885 128.477 95.2513C129.639 94.9516 130.594 94.1252 131.051 93.0178L131.964 90.8131C132.424 89.704 132.335 88.4459 131.723 87.4129C127.78 80.7311 128.796 71.9851 134.39 66.3904C137.723 63.0562 142.176 61.3477 146.648 61.3477C149.662 61.3477 152.683 62.1249 155.374 63.7031C156.42 64.3177 157.689 64.4295 158.811 63.9638L161.014 63.0511C162.124 62.594 162.95 61.6406 163.25 60.479C165.187 52.964 172.089 47.498 179.998 47.498C187.909 47.498 194.811 52.964 196.75 60.479C197.05 61.6406 197.876 62.5923 198.984 63.0511L201.187 63.9638C202.294 64.4227 203.552 64.333 204.587 63.7251C211.269 59.7813 220.015 60.7956 225.609 66.3904C231.204 71.9834 232.218 80.7294 228.275 87.4146C227.667 88.4475 227.577 89.7057 228.034 90.8131L228.949 93.0178C229.408 94.1252 230.361 94.9516 231.523 95.2513C239.036 97.1885 244.503 104.09 244.503 112C244.503 119.911 239.036 126.813 231.523 128.75ZM235.976 88.815C240.097 79.6169 238.269 68.4494 230.911 61.0886C223.55 53.7294 212.383 51.9006 203.185 56.0256C199.597 46.6056 190.407 40 179.998 40C169.593 40 160.401 46.6056 156.813 56.0256C147.615 51.9006 136.449 53.7294 129.089 61.0886C121.729 68.4494 119.902 79.6186 124.024 88.815C114.604 92.4031 108 101.593 108 112C108 122.409 114.604 131.598 124.024 135.187C119.899 144.383 121.728 155.552 129.089 162.911C133.867 167.69 140.251 170.137 146.658 170.137C151.43 170.135 156.221 168.777 160.366 166.013H199.632C209.343 172.489 222.57 171.251 230.911 162.911C238.269 155.554 240.097 144.385 235.976 135.187C245.394 131.598 251.998 122.409 251.998 112C251.998 101.593 245.394 92.4031 235.976 88.815Z" fill="#19194B"/>
<path fill-rule="evenodd" clip-rule="evenodd" d="M231.523 95.251C230.361 94.9512 229.408 94.1249 228.949 93.0175L228.034 90.8128C227.577 89.7053 227.667 88.4472 228.275 87.4143C232.219 80.7291 231.204 71.9831 225.61 66.39C220.015 60.7953 211.269 59.781 204.587 63.7248C203.552 64.3343 202.294 64.4224 201.187 63.9635L198.982 63.0508C197.876 62.5919 197.05 61.6403 196.75 60.4787C194.811 52.9637 187.909 47.4977 179.998 47.4977C172.089 47.4977 165.187 52.9637 163.25 60.4787C162.95 61.6403 162.124 62.5936 161.014 63.0508L158.811 63.9635C157.689 64.4292 156.421 64.3174 155.374 63.7044C152.683 62.1246 149.662 61.349 146.648 61.349C142.176 61.349 137.723 63.0559 134.39 66.39C128.796 71.9848 127.78 80.7308 131.723 87.4143C132.335 88.4455 132.424 89.7053 131.964 90.8128L131.051 93.0175C130.594 94.1249 129.639 94.9512 128.477 95.251C120.962 97.1881 115.495 104.09 115.495 112.001C115.495 119.911 120.962 126.813 128.477 128.75C129.639 129.05 130.592 129.876 131.051 130.983L131.964 133.188C132.424 134.297 132.335 135.555 131.723 136.588C127.78 143.272 128.794 152.016 134.39 157.611C140.419 163.642 150.115 164.352 156.937 159.26L159.177 158.517H200.819L203.06 159.26C209.887 164.35 219.58 163.642 225.61 157.611C231.204 152.018 232.219 143.272 228.275 136.587C227.667 135.554 227.577 134.296 228.034 133.188L228.949 130.983C229.408 129.876 230.361 129.05 231.523 128.75C239.036 126.813 244.504 119.911 244.504 112.001C244.504 104.09 239.036 97.1881 231.523 95.251Z" fill="white"/>
<path fill-rule="evenodd" clip-rule="evenodd" d="M210.804 117.487C209.241 114.72 207.301 112.144 204.991 109.834L204.141 108.984C203.149 107.99 201.535 107.99 200.541 108.984L198.843 110.685C197.849 111.679 197.849 113.291 198.843 114.285L199.693 115.135C204.952 120.396 207.85 127.389 207.85 134.828C207.85 150.036 195.597 162.434 180.441 162.673C165.063 162.915 152.149 150.208 152.149 134.828C152.149 127.389 155.047 120.396 160.308 115.135L161.158 114.285C162.152 113.291 162.152 111.679 161.158 110.685L159.456 108.984C158.462 107.99 156.85 107.99 155.856 108.984L155.006 109.834C152.698 112.144 150.758 114.72 149.195 117.487C145.632 115.028 143.041 111.275 142.076 106.976H149.637C151.042 106.976 152.182 105.838 152.182 104.431V103.229C152.182 99.4883 155.214 96.4556 158.957 96.4556C162.062 96.4556 164.675 98.5485 165.473 101.4C165.777 102.487 166.783 103.227 167.911 103.227H171.044C172.171 103.227 173.177 102.487 173.482 101.4C174.281 98.5485 176.892 96.4556 179.999 96.4556C183.107 96.4556 185.72 98.5485 186.515 101.4C186.82 102.487 187.828 103.227 188.955 103.227H192.086C193.214 103.227 194.222 102.487 194.526 101.4C195.322 98.5485 197.935 96.4556 201.042 96.4556C204.783 96.4556 207.816 99.4883 207.816 103.229V104.431C207.816 105.838 208.955 106.976 210.362 106.976H217.923C216.956 111.275 214.367 115.028 210.804 117.487Z" fill="white"/>
<path fill-rule="evenodd" clip-rule="evenodd" d="M190.557 118.823C188.449 118.823 186.739 120.532 186.739 122.642C186.739 124.75 188.449 126.459 190.557 126.459C192.665 126.459 194.376 124.75 194.376 122.642C194.376 120.532 192.665 118.823 190.557 118.823Z" fill="#19194B"/>
<path fill-rule="evenodd" clip-rule="evenodd" d="M169.513 118.823C167.405 118.823 165.695 120.532 165.695 122.642C165.695 124.75 167.405 126.459 169.513 126.459C171.621 126.459 173.331 124.75 173.331 122.642C173.331 120.532 171.621 118.823 169.513 118.823Z" fill="#19194B"/>
<path fill-rule="evenodd" clip-rule="evenodd" d="M186.362 156.534C186.362 160.049 183.512 162.897 179.999 162.897C176.485 162.897 173.635 160.049 173.635 156.534H186.362Z" fill="#19194B"/>
<path fill-rule="evenodd" clip-rule="evenodd" d="M210.804 117.487C209.241 114.72 207.301 112.144 204.991 109.834L204.141 108.984C203.149 107.99 201.535 107.99 200.541 108.984L198.843 110.685C197.849 111.678 197.849 113.291 198.843 114.285L199.693 115.135C204.952 120.396 207.85 127.389 207.85 134.828C207.85 150.036 195.597 162.434 180.441 162.673C165.063 162.915 152.149 150.208 152.149 134.828C152.149 127.389 155.047 120.396 160.308 115.135L161.158 114.285C162.152 113.291 162.152 111.678 161.158 110.685L159.456 108.984C158.462 107.99 156.85 107.99 155.856 108.984L155.006 109.834C152.698 112.144 150.758 114.72 149.195 117.487C145.632 115.028 143.041 111.275 142.076 106.976H149.637C151.042 106.976 152.182 105.838 152.182 104.431V103.229C152.182 99.4883 155.214 96.4556 158.957 96.4556C162.062 96.4556 164.675 98.5485 165.473 101.4C165.777 102.487 166.783 103.227 167.911 103.227H171.044C172.171 103.227 173.177 102.487 173.482 101.4C174.281 98.5485 176.892 96.4556 179.999 96.4556C183.107 96.4556 185.72 98.5485 186.515 101.4C186.82 102.487 187.828 103.227 188.955 103.227H192.086C193.214 103.227 194.222 102.487 194.526 101.4C195.322 98.5485 197.935 96.4556 201.042 96.4556C204.783 96.4556 207.816 99.4883 207.816 103.229V104.431C207.816 105.838 208.955 106.976 210.362 106.976H217.923C216.956 111.275 214.367 115.028 210.804 117.487ZM223.289 99.4798H214.812C213.163 93.4245 207.614 88.9592 201.042 88.9592C196.882 88.9592 193.129 90.7491 190.52 93.5989C187.911 90.7491 184.16 88.9592 179.999 88.9592C175.839 88.9592 172.088 90.7491 169.477 93.5989C166.868 90.7491 163.115 88.9592 158.955 88.9592C152.383 88.9592 146.836 93.4245 145.185 99.4798H136.71C135.304 99.4798 134.165 100.621 134.165 102.027V103.229C134.165 112.092 138.967 120.054 146.206 124.443C145.126 127.975 144.589 131.695 144.66 135.505C145.017 154.741 160.975 170.288 180.218 170.173C199.606 170.054 215.346 154.245 215.346 134.828C215.346 131.25 214.814 127.755 213.796 124.431C213.796 124.433 213.798 124.436 213.8 124.438C221.034 120.049 225.834 112.09 225.834 103.229V102.027C225.834 100.621 224.695 99.4798 223.289 99.4798Z" fill="#19194B"/>
<path d="M110.573 138.74C110.262 133.456 114.464 129 119.757 129H239.357C244.608 129 248.794 133.387 248.547 138.632L245 214H115L110.573 138.74Z" fill="#EBECF0"/>
<circle cx="180.15" cy="171.55" r="11.5" fill="#66C6EC"/>
<path d="M180.15 163.822C179.616 163.822 179.088 163.983 178.606 164.305C178.175 164.62 177.859 165.103 177.698 165.579C177.332 165.373 176.926 165.296 176.489 165.296C176.36 165.296 176.231 165.302 176.103 165.315C175.569 165.418 175.092 165.63 174.661 166.061C174.295 166.428 174.024 166.969 173.915 167.503C173.812 168.037 173.915 168.564 174.179 169.098C173.645 169.259 173.22 169.581 172.905 170.006C172.589 170.437 172.422 170.964 172.422 171.55C172.422 172.084 172.583 172.612 172.905 173.094C173.22 173.525 173.703 173.841 174.179 174.002C173.915 174.484 173.863 175.012 173.915 175.597C173.966 176.183 174.23 176.608 174.661 177.039C175.028 177.406 175.569 177.676 176.103 177.785C176.238 177.811 176.379 177.83 176.514 177.83C176.907 177.83 177.3 177.721 177.698 177.521C177.859 178.055 178.181 178.48 178.606 178.795C179.037 179.111 179.565 179.278 180.15 179.278C180.684 179.278 181.212 179.117 181.694 178.795C182.125 178.48 182.441 177.998 182.602 177.521C182.968 177.727 183.374 177.804 183.811 177.804C183.94 177.804 184.069 177.798 184.197 177.785C184.732 177.682 185.208 177.47 185.639 177.039C186.006 176.672 186.276 176.131 186.385 175.597C186.488 175.063 186.385 174.536 186.121 174.002C186.655 173.841 187.132 173.519 187.447 173.043C187.711 172.56 187.878 172.033 187.878 171.55C187.878 171.016 187.717 170.488 187.395 170.057C187.08 169.626 186.598 169.311 186.121 169.098C186.385 168.616 186.437 168.088 186.385 167.503C186.282 166.969 186.07 166.492 185.639 166.061C185.272 165.695 184.732 165.424 184.197 165.315C184.062 165.289 183.921 165.27 183.786 165.27C183.393 165.27 183.001 165.379 182.602 165.579C182.441 165.045 182.119 164.62 181.694 164.305C181.27 163.983 180.742 163.822 180.15 163.822Z" fill="#19194B"/>
<path d="M178.427 164.037C178.96 163.681 179.549 163.5 180.15 163.5C180.801 163.5 181.399 163.677 181.888 164.047C182.27 164.331 182.581 164.698 182.783 165.146C183.111 165.019 183.445 164.948 183.786 164.948C183.949 164.948 184.113 164.971 184.258 164.999L184.262 164.999C184.849 165.12 185.449 165.416 185.866 165.834C186.35 166.318 186.588 166.856 186.701 167.442L186.705 167.458L186.706 167.474C186.751 167.983 186.725 168.477 186.545 168.947C186.956 169.167 187.363 169.468 187.654 169.866C188.02 170.357 188.2 170.953 188.2 171.55C188.2 172.102 188.011 172.683 187.729 173.197L187.723 173.209L187.715 173.221C187.423 173.662 187.014 173.983 186.553 174.185C186.735 174.664 186.798 175.155 186.701 175.658L186.701 175.662C186.58 176.249 186.284 176.849 185.866 177.266C185.382 177.75 184.844 177.988 184.258 178.101L184.244 178.104L184.229 178.106C184.09 178.119 183.951 178.126 183.811 178.126C183.455 178.126 183.106 178.079 182.773 177.955C182.576 178.371 182.275 178.77 181.884 179.055L181.879 179.059L181.873 179.063C181.34 179.419 180.751 179.6 180.15 179.6C179.502 179.6 178.906 179.414 178.416 179.055L178.414 179.054C178.031 178.77 177.719 178.403 177.517 177.954C177.189 178.081 176.855 178.152 176.514 178.152C176.351 178.152 176.187 178.129 176.042 178.101L176.038 178.101C175.451 177.98 174.851 177.684 174.434 177.266C173.97 176.803 173.654 176.311 173.594 175.626C173.55 175.125 173.575 174.637 173.747 174.174C173.331 173.977 172.931 173.675 172.645 173.284L172.641 173.279L172.637 173.273C172.282 172.74 172.1 172.151 172.1 171.55C172.1 170.902 172.286 170.306 172.645 169.816L172.646 169.814C172.931 169.431 173.298 169.118 173.748 168.916C173.565 168.437 173.502 167.946 173.599 167.442L173.599 167.438C173.72 166.851 174.016 166.251 174.434 165.834C174.918 165.35 175.456 165.112 176.042 164.999L176.056 164.996L176.071 164.994C176.21 164.981 176.349 164.974 176.489 164.974C176.845 164.974 177.194 165.021 177.527 165.145C177.724 164.729 178.025 164.33 178.416 164.045L178.421 164.041L178.427 164.037Z" fill="#19194B"/>
<path d="M180.166 164.595C180.605 164.595 180.986 164.716 181.284 164.932C181.609 165.18 181.825 165.485 181.939 165.847C181.996 166.044 182.136 166.197 182.32 166.273C182.403 166.305 182.498 166.33 182.594 166.33C182.695 166.33 182.803 166.305 182.899 166.261C183.21 166.108 183.49 166.032 183.763 166.032C183.858 166.032 183.947 166.038 184.036 166.057C184.443 166.14 184.849 166.343 185.11 166.61C185.39 166.89 185.561 167.214 185.65 167.653C185.695 168.142 185.631 168.498 185.466 168.804C185.371 168.975 185.358 169.166 185.415 169.344C185.472 169.522 185.612 169.675 185.777 169.751C186.209 169.948 186.552 170.202 186.769 170.488C186.991 170.774 187.105 171.156 187.105 171.556C187.105 171.893 186.985 172.3 186.781 172.675C186.508 173.063 186.127 173.241 185.847 173.33C185.65 173.387 185.498 173.527 185.421 173.712C185.345 173.896 185.345 174.099 185.44 174.29C185.65 174.703 185.714 175.079 185.644 175.435C185.561 175.841 185.358 176.248 185.091 176.509C184.811 176.789 184.487 176.96 184.049 177.049C183.947 177.056 183.852 177.056 183.763 177.056C183.413 177.056 183.134 176.999 182.899 176.859C182.797 176.801 182.689 176.776 182.568 176.776C182.485 176.776 182.397 176.795 182.32 176.82C182.136 176.897 181.99 177.049 181.92 177.234C181.799 177.596 181.558 177.939 181.278 178.156C180.929 178.384 180.541 178.505 180.141 178.505C179.702 178.505 179.321 178.384 179.022 178.168C178.698 177.92 178.482 177.615 178.368 177.253C178.31 177.056 178.171 176.903 177.986 176.827C177.904 176.795 177.808 176.77 177.713 176.77C177.611 176.77 177.503 176.795 177.408 176.84C177.097 176.992 176.817 177.068 176.544 177.068C176.449 177.068 176.36 177.062 176.271 177.043C175.864 176.96 175.457 176.757 175.197 176.49C174.841 176.134 174.688 175.854 174.657 175.492C174.612 174.983 174.663 174.608 174.834 174.309C174.936 174.131 174.942 173.921 174.879 173.731C174.803 173.546 174.65 173.4 174.466 173.33C174.104 173.209 173.767 172.968 173.544 172.688C173.316 172.338 173.195 171.951 173.195 171.556C173.195 171.118 173.316 170.736 173.532 170.437C173.78 170.113 174.085 169.897 174.447 169.783C174.644 169.725 174.796 169.586 174.873 169.401C174.949 169.217 174.949 169.013 174.854 168.823C174.644 168.409 174.58 168.034 174.65 167.678C174.733 167.271 174.936 166.865 175.203 166.604C175.483 166.324 175.807 166.152 176.245 166.063C176.347 166.057 176.442 166.057 176.531 166.057H176.531C176.881 166.057 177.16 166.114 177.395 166.254C177.497 166.311 177.605 166.337 177.726 166.337C177.808 166.337 177.897 166.318 177.974 166.292C178.158 166.216 178.304 166.063 178.374 165.879C178.495 165.517 178.736 165.173 179.016 164.957C179.384 164.716 179.778 164.595 180.166 164.595Z" fill="white"/>
<path d="M180.166 164.595C180.605 164.595 180.986 164.716 181.284 164.932C181.609 165.18 181.825 165.485 181.939 165.847C181.996 166.044 182.136 166.197 182.32 166.273C182.403 166.305 182.498 166.33 182.594 166.33C182.695 166.33 182.803 166.305 182.899 166.261C183.21 166.108 183.49 166.032 183.763 166.032C183.858 166.032 183.947 166.038 184.036 166.057C184.443 166.14 184.849 166.343 185.11 166.61C185.39 166.89 185.561 167.214 185.65 167.653C185.695 168.142 185.631 168.498 185.466 168.804C185.371 168.975 185.358 169.166 185.415 169.344C185.472 169.522 185.612 169.675 185.777 169.751C186.209 169.948 186.552 170.202 186.769 170.488C186.991 170.774 187.105 171.156 187.105 171.556C187.105 171.893 186.985 172.3 186.781 172.675C186.508 173.063 186.127 173.241 185.847 173.33C185.65 173.387 185.498 173.527 185.421 173.712C185.345 173.896 185.345 174.099 185.44 174.29C185.65 174.703 185.714 175.079 185.644 175.435C185.561 175.841 185.358 176.248 185.091 176.509C184.811 176.789 184.487 176.96 184.049 177.049C183.947 177.056 183.852 177.056 183.763 177.056C183.413 177.056 183.134 176.999 182.899 176.859C182.797 176.801 182.689 176.776 182.568 176.776C182.485 176.776 182.397 176.795 182.32 176.82C182.136 176.897 181.99 177.049 181.92 177.234C181.799 177.596 181.558 177.939 181.278 178.156C180.929 178.384 180.541 178.505 180.141 178.505C179.702 178.505 179.321 178.384 179.022 178.168C178.698 177.92 178.482 177.615 178.368 177.253C178.31 177.056 178.171 176.903 177.986 176.827C177.904 176.795 177.808 176.77 177.713 176.77C177.611 176.77 177.503 176.795 177.408 176.84C177.097 176.992 176.817 177.068 176.544 177.068C176.449 177.068 176.36 177.062 176.271 177.043C175.864 176.96 175.457 176.757 175.197 176.49C174.841 176.134 174.688 175.854 174.657 175.492C174.612 174.983 174.663 174.608 174.834 174.309C174.936 174.131 174.942 173.921 174.879 173.731C174.803 173.546 174.65 173.4 174.466 173.33C174.104 173.209 173.767 172.968 173.544 172.688C173.316 172.338 173.195 171.951 173.195 171.556C173.195 171.118 173.316 170.736 173.532 170.437C173.78 170.113 174.085 169.897 174.447 169.783C174.644 169.725 174.796 169.586 174.873 169.401C174.949 169.217 174.949 169.013 174.854 168.823C174.644 168.409 174.58 168.034 174.65 167.678C174.733 167.271 174.936 166.865 175.203 166.604C175.483 166.324 175.807 166.152 176.245 166.063C176.347 166.057 176.442 166.057 176.531 166.057H176.531C176.881 166.057 177.16 166.114 177.395 166.254C177.497 166.311 177.605 166.337 177.726 166.337C177.808 166.337 177.897 166.318 177.974 166.292C178.158 166.216 178.304 166.063 178.374 165.879C178.495 165.517 178.736 165.173 179.016 164.957C179.384 164.716 179.778 164.595 180.166 164.595Z" stroke="black"/>
<path d="M115 215H245V218.7C245 219.97 243.97 221 242.7 221H117.3C116.03 221 115 219.97 115 218.7V215Z" fill="#EBECF0"/>
<rect x="38" y="221" width="284" height="8" rx="4" fill="#F8D07B"/>
<path d="M264 183.286H296L292.571 221H267.429L264 183.286Z" fill="#EBECF0"/>
<mask id="mask0" mask-type="alpha" maskUnits="userSpaceOnUse" x="264" y="183" width="32" height="38">
<path d="M264 183.286H296L292.571 221H267.429L264 183.286Z" fill="#FEF8DB"/>
</mask>
<g mask="url(#mask0)">
<rect x="264" y="193.572" width="32" height="16" fill="#66DE7D"/>
</g>
<rect x="261.714" y="178.714" width="36.5714" height="4.57143" rx="1.14286" fill="#344563"/>
<path d="M294.857 177.354C294.857 176.18 293.967 175.197 292.799 175.08L272 173H267.429C266.166 173 265.143 174.023 265.143 175.286V178.714H294.857V177.354Z" fill="#121E31"/>
<rect x="273.143" y="200.429" width="13.7143" height="2.28571" rx="1.14286" fill="#38AD5A"/>
<path d="M75.6725 209.1L70.3202 172.264L79.8263 170.883L85.1786 207.719L75.6725 209.1Z" fill="#FADD7F"/>
<path d="M78.8258 214.102C77.5133 214.293 76.2947 213.383 76.104 212.071L75.327 206.724L84.8331 205.342L85.6101 210.69C85.8008 212.002 84.8914 213.221 83.5789 213.411L78.8258 214.102Z" fill="#F99493"/>
<path d="M75.4134 207.318L74.8954 203.753L84.4015 202.372L84.9195 205.937L75.4134 207.318Z" fill="#EBECF0"/>
<path d="M75.5861 208.506L75.4135 207.318L84.9196 205.936L85.0922 207.125L75.5861 208.506Z" fill="#EB4B68"/>
<path d="M75.2408 206.13L75.0681 204.941L84.5742 203.56L84.7469 204.748L75.2408 206.13Z" fill="#DFE1E6"/>
<path d="M74.8955 203.753L74.7229 202.565L84.229 201.183L84.4016 202.372L74.8955 203.753Z" fill="#F6C770"/>
<path d="M80.1564 202.382L78.9681 202.554L74.4791 171.66L75.6673 171.487L80.1564 202.382Z" fill="#F6C770"/>
<path d="M70.3201 172.264L79.8263 170.883L74.8507 162.289C74.3076 161.35 72.8978 161.555 72.6441 162.609L70.3201 172.264Z" fill="#FFCEBF"/>
<mask id="mask1" mask-type="alpha" maskUnits="userSpaceOnUse" x="70" y="161" width="10" height="12">
<path d="M70.3201 172.264L79.8263 170.883L74.8507 162.289C74.3076 161.35 72.8978 161.555 72.6441 162.609L70.3201 172.264Z" fill="#FFCEBF"/>
</mask>
<g mask="url(#mask1)">
<rect x="69.457" y="166.323" width="6.00372" height="13.2082" transform="rotate(-98.2673 69.457 166.323)" fill="#344563"/>
</g>
<mask id="mask2" mask-type="alpha" maskUnits="userSpaceOnUse" x="70" y="170" width="11" height="5">
<rect x="70.6655" y="174.641" width="2.40149" height="9.60594" transform="rotate(-98.2673 70.6655 174.641)" fill="#C4C4C4"/>
</mask>
<g mask="url(#mask2)">
<path fill-rule="evenodd" clip-rule="evenodd" d="M75.0948 171.722C74.9636 170.82 73.7934 170.243 72.4808 170.433C71.1683 170.624 70.2106 171.51 70.3417 172.413C70.4728 173.315 71.6431 173.892 72.9556 173.701C74.2682 173.51 75.2259 172.624 75.0948 171.722ZM79.8478 171.031C79.7167 170.129 78.5464 169.552 77.2339 169.743C75.9214 169.933 74.9637 170.82 75.0948 171.722C75.2259 172.624 76.3962 173.201 77.7087 173.01C79.0212 172.82 79.9789 171.934 79.8478 171.031Z" fill="#FFCEBF"/>
</g>
<rect x="86.1791" y="166.553" width="10.7195" height="45.26" rx="2.38211" transform="rotate(8.33542 86.1791 166.553)" fill="#CFF6FF"/>
<rect x="85.8337" y="168.91" width="4.76421" height="1.19105" transform="rotate(8.33542 85.8337 168.91)" fill="#66C6EC"/>
<rect x="85.4885" y="171.267" width="2.38211" height="1.19105" transform="rotate(8.33542 85.4885 171.267)" fill="#66C6EC"/>
<rect x="85.1431" y="173.624" width="4.76421" height="1.19105" transform="rotate(8.33542 85.1431 173.624)" fill="#66C6EC"/>
<rect x="84.7977" y="175.981" width="2.38211" height="1.19105" transform="rotate(8.33542 84.7977 175.981)" fill="#66C6EC"/>
<rect x="84.4524" y="178.338" width="4.76421" height="1.19105" transform="rotate(8.33542 84.4524 178.338)" fill="#66C6EC"/>
<rect x="84.1071" y="180.695" width="2.38211" height="1.19105" transform="rotate(8.33542 84.1071 180.695)" fill="#66C6EC"/>
<rect x="83.7618" y="183.052" width="4.76421" height="1.19105" transform="rotate(8.33542 83.7618 183.052)" fill="#66C6EC"/>
<rect x="83.4164" y="185.409" width="2.38211" height="1.19105" transform="rotate(8.33542 83.4164 185.409)" fill="#66C6EC"/>
<rect x="65.9999" y="188" width="31" height="33" rx="4.76421" fill="#EB4B68"/>
<rect x="93" y="194" width="20" height="2" rx="1" transform="rotate(90 93 194)" fill="#A92556"/>
<circle cx="92" cy="216" r="1" fill="#A92556"/>
<rect x="115" y="214" width="130" height="1" fill="#DFE1E6"/>
<path d="M266.752 167.12C266.942 167.287 267.19 167.375 267.443 167.367C267.696 167.358 267.937 167.254 268.117 167.075C268.296 166.895 268.401 166.655 268.409 166.401C268.418 166.148 268.33 165.901 268.164 165.71C268.109 165.655 268.065 165.59 268.036 165.519C268.006 165.447 267.991 165.371 267.991 165.293C267.991 165.216 268.006 165.139 268.036 165.068C268.065 164.996 268.109 164.931 268.164 164.877C268.646 164.392 268.918 163.735 268.918 163.051C268.918 162.366 268.646 161.71 268.164 161.225C267.971 161.068 267.728 160.989 267.481 161.001C267.233 161.014 266.999 161.118 266.824 161.293C266.649 161.469 266.545 161.703 266.533 161.95C266.521 162.198 266.601 162.441 266.758 162.633C266.868 162.743 266.93 162.893 266.93 163.05C266.93 163.206 266.868 163.356 266.758 163.467C266.274 163.951 266.001 164.607 266 165.292C265.999 165.977 266.269 166.634 266.752 167.12Z" fill="#EBECF0"/>
<path d="M270.752 171.12C270.942 171.287 271.19 171.375 271.443 171.367C271.696 171.358 271.937 171.254 272.117 171.075C272.296 170.895 272.401 170.655 272.409 170.401C272.418 170.148 272.33 169.901 272.164 169.71C272.109 169.655 272.065 169.59 272.036 169.519C272.006 169.447 271.991 169.371 271.991 169.293C271.991 169.216 272.006 169.139 272.036 169.068C272.065 168.996 272.109 168.931 272.164 168.877C272.646 168.392 272.918 167.735 272.918 167.051C272.918 166.366 272.646 165.71 272.164 165.225C271.971 165.068 271.728 164.989 271.481 165.001C271.233 165.014 270.999 165.118 270.824 165.293C270.649 165.469 270.545 165.703 270.533 165.95C270.521 166.198 270.601 166.441 270.758 166.633C270.868 166.743 270.93 166.893 270.93 167.05C270.93 167.206 270.868 167.356 270.758 167.467C270.274 167.951 270.001 168.607 270 169.292C269.999 169.977 270.269 170.634 270.752 171.12Z" fill="#EBECF0"/>
</svg>
